<?xml version="1.0" encoding="UTF-8"?>
<svg id="katman_1" data-name="katman 1" xmlns="http://www.w3.org/2000/svg" viewBox="0 0 477.03 415.77">
  <defs>
    <style>
      .cls-1 {
        fill: #dce0f9;
      }
    </style>
  </defs>
  <path class="cls-1" d="M461.36,22.84c-27.22-4.58-65.84,3.39-94.43,0-5.31,21.18,13.97,10.4,26.39,21.7,13.66,12.43,6.97,28.06,1.68,42.42-9.39,25.5-38.67,68.85-43.78,90.39-2.3,9.69,1.04,14.99,2.02,24.04,4.84-.83,6.64-6.33,8.71-10.14,10.98-20.22,48.83-97.54,52.26-116.01,3.02-16.24-1.79-25.21-9.5-38.67h53.22c8.16,0,4.76,25.31,3.46,30.95-8.48,37-52.95,113.3-71.03,152.14-3.63,7.8-18.05,48.55-20.05,50.38-7.04,6.42-6.52-6.04-7.57-7.72-9.13-14.65-33.67-3.84-24.45,17.22,2.81,6.42,14.37,6.8,14.53,19.65.06,4.82-7.76,25.53-11.65,25.74-7.12.39-.55-17.84-4.95-24.95-1.99-3.22-10.08-6.52-14.1-10.82-19.19-20.46-2.99-15.09,5.11-26.19,3.18-4.35,2.71-10.88,5.21-14.52,3.5-5.11,10.95-4.39,13.27-15.23-2.14-10.37,1.02-27.63-.07-36.21-4.04-31.73-16.32-47.48-35.94-68.88-2.89-3.15-.54-7.49-8.86-13.4-14.85-10.55-30.04-3.21-39.69,10.07l.05,146.28c6.81,23.26,41.05,12.59,44.1,14.35,11.87,6.83.53,24.43,4.79,32.73,6.13,11.95,42.85,3.33,13.94,44.61-7.28-8.74-27.15-24.86-31.12-34.35-1.59-3.8,4.96-6.88,5.23-11.92,1.12-21.29-32.93-20.66-30.95-.24.32,3.34,18.4,25.02,22.37,29.56,6.17,7.07,39.3,29.99,25.84,40.97-5.11,4.17-28.43-32.31-37.39-32.95l-27.12-31.25c-2.06-59.84,8.29-125.4,2.89-184.87-2.34-25.72-24.12-37.02-44.54-20.19-12.65,10.43-15.61,24.13-21.87,34.81-1.37,2.34-7.75,3.18-10.24,8.55-.72,1.55-8.31,30.13-8.71,32.85-.88,5.98-1.09,34.56.03,39.54,2.37,10.52,9.74,10.21,11.94,13.83,12.04,19.83,20.89,23.98,30.45,37.19.07.08.13.15.19.23.23.13.44.28.64.45.44.15.85.35,1.2.6.1.04.21.09.31.13,0,0,0,0,.01,0,.17.1.32.21.47.32.26.12.51.25.74.4.21.08.43.16.62.26.02,0,.03.01.05.02.13.02.26.04.39.08.4.07.8.17,1.18.34.06.02.13.04.19.06.13.03.26.06.37.1.29.02.58.06.86.14.32.01.63.05.94.12.32.05.62.12.89.22.17,0,.34,0,.51.03h.57c.25,0,.49.02.73.06.21.02.41.05.61.09.13.01.26.02.39.04.05,0,.1,0,.15,0,.16,0,.32.02.48.03h.35s.06,0,.1,0c.28-.04.56-.07.83-.06.03,0,.05,0,.08,0,.08-.01.16-.02.24-.03,0,0,.02,0,.03,0,.06,0,.13.01.19.01.04,0,.08,0,.11,0,.06,0,.13,0,.19,0,.02,0,.04,0,.06-.01.44-.12.88-.18,1.32-.18.04,0,.08-.02.12-.02.22-.03.44-.04.66-.04.02,0,.04,0,.06,0l.2-.09c.3-.08.6-.12.89-.15.31-.13.63-.24.99-.3,1.27-.3,9.76-.28,10.12.06,1.77,1.68-2.4,34.71,1.79,44.58,1.33,3.13,34.04,37.47,39.45,42.97,4.25,4.32,40.05,26.93,15.3,25.95-27.76-1.1-39.12-43.16-51.57-44.93-15.9-2.26-24.92,13.4-13.6,24.24,5.7,5.46,14.93,1.98,22.34,5.11,7.96,3.36,20.86,25.7,29.93,28.42,30.15,9.04,37.76-11.28,48.61-32.39,51.04-99.27,92.08-207.85,141.42-308.38,7.18-12.68,3.39-47.33-12.18-49.95ZM289.68,276.57c-16.65-.92-26.62-22.75-10.82-16.3,2.59,1.06,18.53,18.49,16.02,4.6-3.1-17.16-22.41-14.12-23.92-15.57-1.41-1.35-1.17-36.01-.39-38.93,1.13-4.22,13.82-.76,13.99-10.67.07-4.17-12.23-.23-13.8-1.73-1.12-1.07-1.07-29.85.05-30.92,1.29-1.23,28.15,7.58,27.44-13.71l-27.44,3.4c-.39-12.97,18.22-6.97,20.64-22.26,2.36-14.88-26.5,10.74-20.62-3.42,8.06-19.4,37.1-10.23,24.02,15.38l15.35-6.87c14.54,8.58-4.94,23.23-5,25.78-.24,11,30.71-11.47,23.92,10.24-2.8,8.96-29.34,4.06-37.7,5.22-3.76,9.16,10.14,8.15,10.22,12,.09,4.5-19.6,9.7-17.08,18.87,21.05,4.51,24.77-26.89,45.82-20.15,11.53,3.69,3.01,18.46-4.85,21.98-3.8,1.7-20.35-2-20.32,6.77.04,12.33,21.41,3.22,26.31,2.26,8.93-1.76,5.18,8.6-.96,12.83-15.76,10.85-18.24-.9-26.96-6.67-18.3-12.1-8.3,5.36-10.65,17.49l25.9,8.39c-16.66,2.94-14.22,22.84-29.15,22.01ZM330.66,311.08c0,.88-.19,1.77-.59,2.54-.36,2.14-1.95,4.04-4.75,4.04-.2,0-.38-.02-.57-.04-.58.24-1.23.38-1.98.38-1.1,0-2.01-.3-2.74-.78-.78-.15-1.45-.46-1.99-.9-.72-.27-1.3-.7-1.76-1.23-.67-.55-1.12-1.3-1.4-2.11-.16-.33-.28-.68-.36-1.03-.04-.11-.09-.21-.12-.32-.47-.83-.71-1.79-.7-2.76-.11-1.36.27-2.75,1.12-3.79.2-.6.54-1.12,1.01-1.56.03-.04.08-.06.11-.09.02-.03.04-.05.06-.08.38-.38.81-.68,1.28-.91.61-.71,1.44-1.24,2.5-1.46.02,0,.03-.02.05-.02.34-.18.69-.29,1.06-.36.59-.26,1.28-.41,2.06-.41.14,0,.26.01.39.02.15-.01.3-.02.46-.02,1.37,0,2.44.45,3.23,1.16,1.05.5,1.78,1.37,2.2,2.37.69.77,1.09,1.75,1.22,2.78.17.59.23,1.2.2,1.82.24.9.23,1.87.02,2.77ZM289.6,317.25c-.15,1.25-.7,2.44-1.66,3.25-.8.85-1.95,1.42-3.46,1.42-.43,0-.82-.05-1.19-.13-.37.08-.77.13-1.19.13-1.3,0-2.33-.42-3.11-1.07-2.47-.31-3.82-2.21-4.06-4.28-.51-1.32-.5-2.86.03-4.16.11-.82.39-1.62.86-2.29.57-1.82,2.09-3.31,4.57-3.31.15,0,.29.01.44.02.57-.23,1.21-.36,1.94-.36.18,0,.34.01.51.03.17-.01.33-.03.51-.03.27,0,.53.02.78.06.04,0,.08.01.12.02.8.13,1.49.42,2.04.84,2.2.68,3.28,2.78,3.24,4.85.2.53.28,1.1.31,1.67.12,1.15-.12,2.34-.69,3.33ZM243.33,249.46c-2.46,2.28-23.02-6.3-24.14,15.39-.72,13.9,11.88-2.87,16.07-4.58,16.32-6.66,5.31,17.48-13.52,15.99-12.69-1-9.2-11.66-13.66-15.6-3.19-2.81-15.08-2.57-16.26-11.17l30.88-.05c2.17-6.15-5.78-8.58-5.78-12,0-2.41,9.18-8.88,5.78-12-8.03-7.38-17.42,13.36-19.55,13.88-10.05,2.42-28.38-3.79-25.03-17.33l22.44,6.07c16.7-19.47-6.61-9.27-15.64-14.62-10.91-6.47-9.87-28.01,11.33-21.72,7.63,2.26,20.02,29.57,29.89,19.95,7.71-7.51-13.02-14.97-13.15-18.87-.05-1.56,9.85-8.8,6.28-12-3.31-2.97-39.37,7.53-34.29-12,3.47-13.33,18.44,9.22,23.98-3.52-24.28-35.65-.56-15.82,6.9-20.49,8.5-5.32-11.58-16.34,6.96-24.26,9.18-3.92,24.27,11.82,20.47,15.6-4.41,4.4-18.12-18.07-20.57-5.08-1.92,10.19,21.96,15.45,20.57,25.68l-27.43-3.4c-5.13,20.85,26.09,12.44,27.44,13.72,1.12,1.06,1.16,29.85.05,30.92-1.57,1.5-13.87-2.44-13.8,1.73.17,9.91,12.86,6.45,13.99,10.67.72,2.7,1.22,37.75-.21,39.08ZM246.61,372.59c-.02.11-.04.23-.08.34,0,.03-.02.06-.03.09-.05.18-.11.35-.18.52,0,.02-.01.04-.02.06-.08.18-.17.36-.27.53-.02.03-.04.06-.05.09-.08.14-.18.27-.28.4-.03.04-.06.08-.09.11-.12.15-.25.3-.4.43,0,0,0,0,0,0-.14.13-.29.25-.45.36-.05.03-.09.06-.14.09-.13.09-.27.17-.42.24-.04.02-.08.04-.12.06-.18.09-.38.16-.58.22-.05.01-.1.03-.15.04-.17.05-.34.08-.52.11-.06.01-.13.02-.19.03-.23.03-.47.05-.72.05-.15,0-.29-.01-.44-.03-.57.23-1.21.37-1.95.37-.19,0-.37-.01-.54-.03-.16.01-.31.03-.48.03-1.42,0-2.52-.5-3.31-1.26-2.17-.69-3.23-2.76-3.21-4.82-.74-1.96-.33-4.39,1.23-5.81.54-1.08,1.47-1.96,2.78-2.33.28-.19.59-.34.92-.45.6-.31,1.24-.46,1.93-.43.11,0,.24.02.37.04.21-.02.43-.04.65-.04.18,0,.35.01.51.03.17-.01.33-.03.51-.03,2.13,0,3.55,1.09,4.27,2.56.76.7,1.25,1.63,1.46,2.63,1.07,1.7,1.07,4.08-.02,5.78ZM355.1,273.73c-.5,1.63-1.76,3-3.78,3.28-.54.2-1.14.32-1.82.32-.12,0-.24-.01-.36-.02-.13,0-.27.02-.4.02-.99,0-1.82-.24-2.5-.65-2.53-.58-3.72-2.94-3.59-5.21-.51-1.62-.26-3.49.73-4.85.55-1.86,2.08-3.38,4.59-3.38.21,0,.4.02.6.04.22-.03.44-.04.68-.04.68,0,1.28.12,1.82.32,1.59.22,2.71,1.11,3.36,2.28.75.75,1.2,1.74,1.36,2.79.61,1.67.38,3.69-.68,5.11Z"/>
  <path class="cls-1" d="M129.48,393.76c-7.31-4.52-13.02-14.83-14.55-23.21-11.47-63.07,9.47-155.5-1.01-218.75-1.97-11.9-14-23.9-25.56-25.95-24.92-4.4-61.26,3.25-87.56,0-4.55,19.01,11.07,13.76,23.22,23.14,29.44,22.71,3.18,70.31,13.71,96.16,6.76,16.58,57.98,51.63,61.94,65.1,7.43,25.27-9.22,65.47,14.44,90.25l-30.9.03v-84.12c0-1.46-17.27-16.73-20.62-20.59-6.13-7.07-6.29-17.55-17.05-20.99-20.35-6.51-24.47,27.23-5.1,29.41,3.88.44,8.13-2.82,12.05-1.43,1.36.48,20.41,19.01,20.41,20.46v77.26l-34.34-.03c15.46-14.17,10.45-30.13,14.53-45.51,1.37-5.17,7.82-9.15,8.7-15.07,2.51-16.98-28.49-21.28-30.2-2.75-1.09,11.73,14.25,24.21,4.44,45.39-9.02,19.47-41.52,9.61-35.24,31.71h151.08c4.34-20.21-10-12.84-22.41-20.52ZM100.35,290.67l-49.69-48.13c-7.66-34.23,9.7-74.17-15.51-102.95,16.11,2.02,38.02-2.77,53.22,0,4.05.74,12.02,8.11,12.02,12.02v104.73c-16.12-8.91-20.35-21.3-16.98-39.33,1.76-9.42,17.66-28.97-6.16-32.28-25.29-3.52-9.09,25.3-7.92,32.28,1.24,7.36-.55,15.29.94,23.25,2.84,15.19,39.84,24.61,30.08,50.41ZM69.33,199.57s0-.03-.01-.04c-.02-.1-.03-.2-.04-.3-.02-.04-.04-.09-.05-.13,0-.02-.01-.03-.02-.05,0-.01,0-.03,0-.04-.05-.08-.1-.16-.14-.24-.21-.37-.37-.75-.48-1.14,0,0,0-.02,0-.03-.02-.09-.04-.18-.06-.27-.06-.23-.13-.47-.16-.71-1.43-2.9-.09-7.24,4.02-7.41.59-.25,1.26-.4,2.03-.4s1.42.14,2,.39c.01,0,.03,0,.04,0,.45,0,.86.06,1.25.16.18-.02.35-.03.54-.03.9,0,1.74.23,2.52.68.03.02.06.05.1.07.87.28,1.58.77,2.09,1.41.89.93,1.36,2.2,1.39,3.49.12.4.19.82.17,1.26v.13c0,.9-.23,1.74-.68,2.52-.15.2-.31.4-.46.6-.21.44-.46.84-.83,1.18-.04.04-.09.09-.13.13-.15.14-.3.27-.46.4-.37.71-.91,1.32-1.61,1.76-.21.16-.44.31-.68.43-.02.02-.05.04-.07.06-.07.06-.16.1-.23.15h-.01c-.62.63-1.36,1.06-2.21,1.3-.33.04-.66.09-.99.13-.09.01-.17.03-.26.03-.03,0-.06,0-.08.01-.03,0-.07,0-.1,0-.09,0-.19.01-.28,0-.69.03-1.33-.12-1.93-.43-.62-.2-1.16-.55-1.61-1.03-.13-.13-.26-.26-.38-.38-.32-.32-.58-.67-.8-1.05-.05-.07-.1-.14-.14-.22-.24-.31-.42-.64-.58-1-.03-.04-.06-.07-.08-.1-.24-.35-.63-1.5-.56-1.29ZM49.34,295.35c-.74,1.38-2.14,2.4-4.19,2.4-.13,0-.25-.01-.38-.02-.54.36-1.18.63-1.94.73-.52.19-1.11.31-1.77.31-1.19,0-2.16-.34-2.91-.9-.05-.03-.11-.06-.16-.09-.03,0-.07-.02-.11-.03-.02,0-.05-.02-.07-.03-.14-.05-.27-.1-.4-.16-.01,0-.02-.01-.04-.02-.14-.06-.27-.13-.4-.21,0,0-.01,0-.02-.01-.41-.25-.76-.55-1.06-.9-.56-.56-.97-1.25-1.2-2.01-.1-.14-.18-.24-.2-.26,0,0-.01-.02-.02-.03-.18-.34-.32-.69-.45-1.05-.03-.07-.07-.12-.09-.19-.31-.6-.46-1.24-.43-1.93v-.26c0-.08.01-.15.01-.22-.2-.49-.29-1.01-.27-1.57v-.26c0-.78.18-1.51.52-2.2,0-.03,0-.06-.01-.09-.03-.69.12-1.33.43-1.93.14-.42.36-.79.63-1.13.46-1.18,1.34-2.17,2.65-2.65.35-.28.72-.51,1.15-.65.6-.31,1.24-.46,1.93-.43h.51c.58,0,1.13.11,1.65.29,1.46.16,2.53.86,3.23,1.83.65.47,1.13,1.1,1.46,1.81.31.49.52,1.04.65,1.62.31.37.56.79.74,1.23.5.71.79,1.56.88,2.43.06.17.09.35.13.52,1.04,1.85.88,4.4-.47,6.04ZM39.02,341.48c-.36-.88-.47-1.87-.35-2.82-.09-1.54.45-3.11,1.61-4.13.11-.13.19-.26.32-.38.23-.23.45-.45.68-.68.43-.43.92-.76,1.46-1,.73-.5,1.65-.8,2.76-.8.05,0,.09,0,.13.01.56-.22,1.19-.35,1.91-.35.83,0,1.55.17,2.17.46,1.49.31,2.52,1.24,3.1,2.41.75.68,1.24,1.58,1.46,2.57.84,1.87.55,4.25-.82,5.77-.42,1.26-1.3,2.35-2.64,2.88-.56.35-1.23.58-2.01.66-.13.05-.26.11-.4.15-.05.02-.11.03-.17.04-.15.04-.31.07-.48.1-.06.01-.13.02-.19.03-.22.03-.45.05-.69.05-.36,0-.69-.04-1.01-.09-.01,0-.02,0-.03,0-.32-.06-.62-.15-.9-.26,0,0,0,0,0,0-.14.01-.29.02-.44.02-.99,0-1.82-.26-2.51-.66-1.75-.65-2.72-2.24-2.94-3.95Z"/>
  <path class="cls-1" d="M39.74,13.7c40.66-40.92,112.84,18.24,72.39,67.24C69.04,133.15-9.04,62.79,39.74,13.7ZM69.01,14.02c-38.56,4.66-39.2,67.12-.9,70.69,56.3,5.24,50.83-76.72.9-70.69Z"/>
  <path class="cls-1" d="M213.69,22.84l.02,13.72c-2.77,2.89-22.26-5.73-20.66,5.16.9,6.09,31.5,62.28,22.34,63.55-7.29,1.01-7.83-.29-11.28-5.89-5.41-8.79-25.26-59.34-28.05-61.22-12.72-8.6-49.41,11.21-48.21-15.31h85.84Z"/>
</svg>